<mxfile host="app.diagrams.net" agent="Mozilla/5.0 (Windows NT 10.0; Win64; x64) AppleWebKit/537.36 (KHTML, like Gecko) Chrome/131.0.0.0 Safari/537.36" version="26.0.5">
  <diagram name="페이지-1" id="aiSF51sDGoChlzKgebk0">
    <mxGraphModel dx="1687" dy="1019" grid="1" gridSize="10" guides="1" tooltips="1" connect="1" arrows="1" fold="1" page="1" pageScale="1" pageWidth="827" pageHeight="1169" math="0" shadow="0">
      <root>
        <mxCell id="0" />
        <mxCell id="1" parent="0" />
        <mxCell id="2SAI_XX-xX0SaPUI6NSl-1" value="영업 단계" style="whiteSpace=wrap;strokeWidth=2;fillColor=#fff2cc;strokeColor=#d6b656;" vertex="1" parent="1">
          <mxGeometry x="86" y="20" width="129" height="54" as="geometry" />
        </mxCell>
        <mxCell id="2SAI_XX-xX0SaPUI6NSl-2" value="Spec 검토 및 주요 사항 영업 부서 공유" style="whiteSpace=wrap;strokeWidth=2;" vertex="1" parent="1">
          <mxGeometry x="20" y="124" width="260" height="78" as="geometry" />
        </mxCell>
        <mxCell id="2SAI_XX-xX0SaPUI6NSl-3" value="요구 수준 완화 또는 견적 조정 제안" style="whiteSpace=wrap;strokeWidth=2;" vertex="1" parent="1">
          <mxGeometry x="20" y="252" width="260" height="78" as="geometry" />
        </mxCell>
        <mxCell id="2SAI_XX-xX0SaPUI6NSl-4" value="수주 직후" style="whiteSpace=wrap;strokeWidth=2;fillColor=#fff2cc;strokeColor=#d6b656;" vertex="1" parent="1">
          <mxGeometry x="86" y="380" width="129" height="54" as="geometry" />
        </mxCell>
        <mxCell id="2SAI_XX-xX0SaPUI6NSl-5" value="Spec Clarification 수행" style="whiteSpace=wrap;strokeWidth=2;" vertex="1" parent="1">
          <mxGeometry x="38" y="484" width="223" height="54" as="geometry" />
        </mxCell>
        <mxCell id="2SAI_XX-xX0SaPUI6NSl-6" value="발주처 협의 필요 시 Clarification/Deviation 진행" style="whiteSpace=wrap;strokeWidth=2;" vertex="1" parent="1">
          <mxGeometry x="20" y="588" width="260" height="102" as="geometry" />
        </mxCell>
        <mxCell id="2SAI_XX-xX0SaPUI6NSl-7" value="공사 준비 단계" style="whiteSpace=wrap;strokeWidth=2;fillColor=#fff2cc;strokeColor=#d6b656;" vertex="1" parent="1">
          <mxGeometry x="67" y="740" width="166" height="54" as="geometry" />
        </mxCell>
        <mxCell id="2SAI_XX-xX0SaPUI6NSl-8" value="WPS 준비: Register 작성 및 Plan 제출" style="whiteSpace=wrap;strokeWidth=2;" vertex="1" parent="1">
          <mxGeometry x="20" y="844" width="260" height="78" as="geometry" />
        </mxCell>
        <mxCell id="2SAI_XX-xX0SaPUI6NSl-9" value="WPQT 수행: 용접/비파괴검사/기계시험" style="whiteSpace=wrap;strokeWidth=2;" vertex="1" parent="1">
          <mxGeometry x="20" y="972" width="260" height="78" as="geometry" />
        </mxCell>
        <mxCell id="2SAI_XX-xX0SaPUI6NSl-10" value="PQR 작성 및 WPS 작성" style="whiteSpace=wrap;strokeWidth=2;" vertex="1" parent="1">
          <mxGeometry x="41" y="1100" width="219" height="54" as="geometry" />
        </mxCell>
        <mxCell id="2SAI_XX-xX0SaPUI6NSl-11" value="공사 착수 단계" style="whiteSpace=wrap;strokeWidth=2;fillColor=#fff2cc;strokeColor=#d6b656;" vertex="1" parent="1">
          <mxGeometry x="67" y="1204" width="166" height="54" as="geometry" />
        </mxCell>
        <mxCell id="2SAI_XX-xX0SaPUI6NSl-12" value="현업 피드백 반영하여 WPS 개정" style="whiteSpace=wrap;strokeWidth=2;" vertex="1" parent="1">
          <mxGeometry x="20" y="1308" width="260" height="78" as="geometry" />
        </mxCell>
        <mxCell id="2SAI_XX-xX0SaPUI6NSl-13" value="설계 변경, 추가 재질 등에 따른 WPS 추가 작성" style="whiteSpace=wrap;strokeWidth=2;" vertex="1" parent="1">
          <mxGeometry x="20" y="1436" width="260" height="78" as="geometry" />
        </mxCell>
        <mxCell id="2SAI_XX-xX0SaPUI6NSl-14" value="생산성 및 효율성 개선 WPS 추가 가능" style="whiteSpace=wrap;strokeWidth=2;" vertex="1" parent="1">
          <mxGeometry x="20" y="1564" width="260" height="78" as="geometry" />
        </mxCell>
        <mxCell id="2SAI_XX-xX0SaPUI6NSl-15" value="" style="curved=1;startArrow=none;endArrow=block;exitX=0.5;exitY=1;entryX=0.5;entryY=0;rounded=0;" edge="1" parent="1" source="2SAI_XX-xX0SaPUI6NSl-1" target="2SAI_XX-xX0SaPUI6NSl-2">
          <mxGeometry relative="1" as="geometry">
            <Array as="points" />
          </mxGeometry>
        </mxCell>
        <mxCell id="2SAI_XX-xX0SaPUI6NSl-16" value="" style="curved=1;startArrow=none;endArrow=block;exitX=0.5;exitY=1;entryX=0.5;entryY=0;rounded=0;" edge="1" parent="1" source="2SAI_XX-xX0SaPUI6NSl-2" target="2SAI_XX-xX0SaPUI6NSl-3">
          <mxGeometry relative="1" as="geometry">
            <Array as="points" />
          </mxGeometry>
        </mxCell>
        <mxCell id="2SAI_XX-xX0SaPUI6NSl-17" value="" style="curved=1;startArrow=none;endArrow=block;exitX=0.5;exitY=1;entryX=0.5;entryY=0;rounded=0;" edge="1" parent="1" source="2SAI_XX-xX0SaPUI6NSl-3" target="2SAI_XX-xX0SaPUI6NSl-4">
          <mxGeometry relative="1" as="geometry">
            <Array as="points" />
          </mxGeometry>
        </mxCell>
        <mxCell id="2SAI_XX-xX0SaPUI6NSl-18" value="" style="curved=1;startArrow=none;endArrow=block;exitX=0.5;exitY=1;entryX=0.5;entryY=0;rounded=0;" edge="1" parent="1" source="2SAI_XX-xX0SaPUI6NSl-4" target="2SAI_XX-xX0SaPUI6NSl-5">
          <mxGeometry relative="1" as="geometry">
            <Array as="points" />
          </mxGeometry>
        </mxCell>
        <mxCell id="2SAI_XX-xX0SaPUI6NSl-19" value="" style="curved=1;startArrow=none;endArrow=block;exitX=0.5;exitY=1;entryX=0.5;entryY=0;rounded=0;" edge="1" parent="1" source="2SAI_XX-xX0SaPUI6NSl-5" target="2SAI_XX-xX0SaPUI6NSl-6">
          <mxGeometry relative="1" as="geometry">
            <Array as="points" />
          </mxGeometry>
        </mxCell>
        <mxCell id="2SAI_XX-xX0SaPUI6NSl-20" value="" style="curved=1;startArrow=none;endArrow=block;exitX=0.5;exitY=1;entryX=0.5;entryY=0;rounded=0;" edge="1" parent="1" source="2SAI_XX-xX0SaPUI6NSl-6" target="2SAI_XX-xX0SaPUI6NSl-7">
          <mxGeometry relative="1" as="geometry">
            <Array as="points" />
          </mxGeometry>
        </mxCell>
        <mxCell id="2SAI_XX-xX0SaPUI6NSl-21" value="" style="curved=1;startArrow=none;endArrow=block;exitX=0.5;exitY=1;entryX=0.5;entryY=0;rounded=0;" edge="1" parent="1" source="2SAI_XX-xX0SaPUI6NSl-7" target="2SAI_XX-xX0SaPUI6NSl-8">
          <mxGeometry relative="1" as="geometry">
            <Array as="points" />
          </mxGeometry>
        </mxCell>
        <mxCell id="2SAI_XX-xX0SaPUI6NSl-22" value="" style="curved=1;startArrow=none;endArrow=block;exitX=0.5;exitY=1;entryX=0.5;entryY=0;rounded=0;" edge="1" parent="1" source="2SAI_XX-xX0SaPUI6NSl-8" target="2SAI_XX-xX0SaPUI6NSl-9">
          <mxGeometry relative="1" as="geometry">
            <Array as="points" />
          </mxGeometry>
        </mxCell>
        <mxCell id="2SAI_XX-xX0SaPUI6NSl-23" value="" style="curved=1;startArrow=none;endArrow=block;exitX=0.5;exitY=1;entryX=0.5;entryY=0;rounded=0;" edge="1" parent="1" source="2SAI_XX-xX0SaPUI6NSl-9" target="2SAI_XX-xX0SaPUI6NSl-10">
          <mxGeometry relative="1" as="geometry">
            <Array as="points" />
          </mxGeometry>
        </mxCell>
        <mxCell id="2SAI_XX-xX0SaPUI6NSl-24" value="" style="curved=1;startArrow=none;endArrow=block;exitX=0.5;exitY=1;entryX=0.5;entryY=0;rounded=0;" edge="1" parent="1" source="2SAI_XX-xX0SaPUI6NSl-10" target="2SAI_XX-xX0SaPUI6NSl-11">
          <mxGeometry relative="1" as="geometry">
            <Array as="points" />
          </mxGeometry>
        </mxCell>
        <mxCell id="2SAI_XX-xX0SaPUI6NSl-25" value="" style="curved=1;startArrow=none;endArrow=block;exitX=0.5;exitY=1;entryX=0.5;entryY=0;rounded=0;" edge="1" parent="1" source="2SAI_XX-xX0SaPUI6NSl-11" target="2SAI_XX-xX0SaPUI6NSl-12">
          <mxGeometry relative="1" as="geometry">
            <Array as="points" />
          </mxGeometry>
        </mxCell>
        <mxCell id="2SAI_XX-xX0SaPUI6NSl-26" value="" style="curved=1;startArrow=none;endArrow=block;exitX=0.5;exitY=1;entryX=0.5;entryY=0;rounded=0;" edge="1" parent="1" source="2SAI_XX-xX0SaPUI6NSl-12" target="2SAI_XX-xX0SaPUI6NSl-13">
          <mxGeometry relative="1" as="geometry">
            <Array as="points" />
          </mxGeometry>
        </mxCell>
        <mxCell id="2SAI_XX-xX0SaPUI6NSl-27" value="" style="curved=1;startArrow=none;endArrow=block;exitX=0.5;exitY=1;entryX=0.5;entryY=0;rounded=0;" edge="1" parent="1" source="2SAI_XX-xX0SaPUI6NSl-13" target="2SAI_XX-xX0SaPUI6NSl-14">
          <mxGeometry relative="1" as="geometry">
            <Array as="points" />
          </mxGeometry>
        </mxCell>
        <mxCell id="2SAI_XX-xX0SaPUI6NSl-28" value="&lt;h1 style=&quot;margin-top: 0px;&quot;&gt;Heading&lt;/h1&gt;&lt;p&gt;graph TD&lt;/p&gt;&lt;p&gt;&amp;nbsp; &amp;nbsp; A[영업 단계] --&amp;gt; B[Spec 검토 및 주요 사항 영업 부서 공유]&lt;/p&gt;&lt;p&gt;&amp;nbsp; &amp;nbsp; B --&amp;gt; C[요구 수준 완화 또는 견적 조정 제안]&lt;/p&gt;&lt;p&gt;&amp;nbsp; &amp;nbsp; C --&amp;gt; D[수주 직후]&lt;/p&gt;&lt;p&gt;&amp;nbsp; &amp;nbsp; D --&amp;gt; E[Spec Clarification 수행]&lt;/p&gt;&lt;p&gt;&amp;nbsp; &amp;nbsp; E --&amp;gt; F[발주처 협의 필요 시 Clarification/Deviation 진행]&lt;/p&gt;&lt;p&gt;&amp;nbsp; &amp;nbsp; F --&amp;gt; G[공사 준비 단계]&lt;/p&gt;&lt;p&gt;&amp;nbsp; &amp;nbsp; G --&amp;gt; H[WPS 준비: Register 작성 및 Plan 제출]&lt;/p&gt;&lt;p&gt;&amp;nbsp; &amp;nbsp; H --&amp;gt; I[WPQT 수행: 용접/비파괴검사/기계시험]&lt;/p&gt;&lt;p&gt;&amp;nbsp; &amp;nbsp; I --&amp;gt; J[PQR 작성 및 WPS 작성]&lt;/p&gt;&lt;p&gt;&amp;nbsp; &amp;nbsp; J --&amp;gt; K[공사 착수 단계]&lt;/p&gt;&lt;p&gt;&amp;nbsp; &amp;nbsp; K --&amp;gt; L[현업 피드백 반영하여 WPS 개정]&lt;/p&gt;&lt;p&gt;&amp;nbsp; &amp;nbsp; L --&amp;gt; M[설계 변경, 추가 재질 등에 따른 WPS 추가 작성]&lt;/p&gt;&lt;p&gt;&amp;nbsp; &amp;nbsp; M --&amp;gt; N[생산성 및 효율성 개선 WPS 추가 가능]&lt;/p&gt;" style="text;html=1;whiteSpace=wrap;overflow=hidden;rounded=0;fillColor=#f5f5f5;fontColor=#333333;strokeColor=#666666;" vertex="1" parent="1">
          <mxGeometry x="480" y="380" width="560" height="460" as="geometry" />
        </mxCell>
      </root>
    </mxGraphModel>
  </diagram>
</mxfile>
